<svg xmlns="http://www.w3.org/2000/svg" width="128" height="128" viewBox="0 0 128 128" version="1.1"><path d="M 52 9.567 C 17.807 16.971, 3.234 53.544, 20.046 89.762 C 28.544 108.068, 44.606 119.237, 64.511 120.682 C 74.010 121.371, 86.439 118.685, 93.891 114.333 C 106.244 107.117, 116.458 92.654, 117.700 80.620 C 118.393 73.900, 116.138 70.991, 110.250 71.015 C 105.106 71.036, 104.357 71.711, 101.562 78.841 C 96.820 90.943, 92.068 96.201, 81.340 101.221 C 70.201 106.434, 57.745 104.966, 47.545 97.238 C 41.733 92.835, 35.506 85.094, 36.764 83.836 C 37.243 83.357, 53.752 77.588, 73.452 71.016 C 93.151 64.444, 110.108 58.307, 111.134 57.378 C 114.135 54.663, 113.622 47.143, 109.929 39.694 C 103.486 26.700, 95.382 18.413, 83.830 13.008 C 73.276 8.069, 63.698 7.033, 52 9.567 M 50.945 14.885 C 37.922 19.053, 27.760 27.472, 22.608 38.364 C 13.755 57.076, 17.640 81.743, 32.189 99.203 C 53.572 124.865, 94.492 120.067, 109.527 90.134 C 112.779 83.659, 113.889 77.167, 111.949 75.969 C 110.344 74.976, 107 76.561, 107 78.313 C 107 78.997, 105.490 82.694, 103.645 86.528 C 99.637 94.858, 92.513 101.932, 84.218 105.820 C 79.152 108.195, 77.301 108.500, 67.979 108.500 C 58.133 108.500, 57.035 108.292, 50.865 105.254 C 40.511 100.157, 28.908 87.016, 30.455 82.140 C 30.935 80.631, 39.108 77.485, 68.617 67.453 C 89.271 60.432, 106.807 54.050, 107.586 53.271 C 111.997 48.860, 98.443 27.985, 85.971 19.981 C 75.519 13.274, 62.086 11.320, 50.945 14.885 M 52.500 21.344 C 45.511 23.662, 40.637 26.652, 35.710 31.645 C 26.120 41.364, 22.535 54.770, 25.549 69.640 C 25.788 70.817, 26.734 72.068, 27.651 72.420 C 29.863 73.269, 95.912 51.328, 98.457 48.898 C 100.398 47.045, 100.397 46.998, 98.318 42.718 C 94.879 35.638, 86.623 27.432, 79.326 23.840 C 73.907 21.172, 71.435 20.580, 64.655 20.324 C 59.727 20.139, 54.917 20.542, 52.500 21.344 M 51.302 27.103 C 39.437 31.664, 30.541 44.041, 29.456 57.500 C 29.125 61.604, 29.314 65.121, 29.912 66 C 30.786 67.283, 35.382 65.996, 61.717 57.093 C 78.648 51.369, 92.907 46.327, 93.404 45.888 C 94.765 44.689, 86.670 34.557, 81.519 31.013 C 72.317 24.682, 61.305 23.257, 51.302 27.103" stroke="none" fill="#393939" fill-rule="evenodd"/><path d="M 50.945 14.885 C 37.922 19.053, 27.760 27.472, 22.608 38.364 C 13.755 57.076, 17.640 81.743, 32.189 99.203 C 53.572 124.865, 94.492 120.067, 109.527 90.134 C 112.779 83.659, 113.889 77.167, 111.949 75.969 C 110.344 74.976, 107 76.561, 107 78.313 C 107 78.997, 105.490 82.694, 103.645 86.528 C 99.637 94.858, 92.513 101.932, 84.218 105.820 C 79.152 108.195, 77.301 108.500, 67.979 108.500 C 58.133 108.500, 57.035 108.292, 50.865 105.254 C 40.511 100.157, 28.908 87.016, 30.455 82.140 C 30.935 80.631, 39.108 77.485, 68.617 67.453 C 89.271 60.432, 106.807 54.050, 107.586 53.271 C 111.997 48.860, 98.443 27.985, 85.971 19.981 C 75.519 13.274, 62.086 11.320, 50.945 14.885 M 52.500 21.344 C 45.511 23.662, 40.637 26.652, 35.710 31.645 C 26.120 41.364, 22.535 54.770, 25.549 69.640 C 25.788 70.817, 26.734 72.068, 27.651 72.420 C 29.863 73.269, 95.912 51.328, 98.457 48.898 C 100.398 47.045, 100.397 46.998, 98.318 42.718 C 94.879 35.638, 86.623 27.432, 79.326 23.840 C 73.907 21.172, 71.435 20.580, 64.655 20.324 C 59.727 20.139, 54.917 20.542, 52.500 21.344" stroke="none" fill="#e8e8e8" fill-rule="evenodd"/></svg>