<svg xmlns="http://www.w3.org/2000/svg" width="128" height="128" 
viewBox="0 0 128 128" version="1.1">
<path d="M 50.945 14.885 C 37.922 19.053, 27.760 27.472, 22.608 38.364 C 13.755 57.076, 17.640 81.743, 32.189 99.203 C 53.572 124.865, 94.492 120.067, 109.527 90.134 C 112.779 83.659, 113.889 77.167, 111.949 75.969 C 110.344 74.976, 107 76.561, 107 78.313 C 107 78.997, 105.490 82.694, 103.645 86.528 C 99.637 94.858, 92.513 101.932, 84.218 105.820 C 79.152 108.195, 77.301 108.500, 67.979 108.500 C 58.133 108.500, 57.035 108.292, 50.865 105.254 C 40.511 100.157, 28.908 87.016, 30.455 82.140 C 30.935 80.631, 39.108 77.485, 68.617 67.453 C 89.271 60.432, 106.807 54.050, 107.586 53.271 C 111.997 48.860, 98.443 27.985, 85.971 19.981 C 75.519 13.274, 62.086 11.320, 50.945 14.885 M 52.500 21.344 C 45.511 23.662, 40.637 26.652, 35.710 31.645 C 26.120 41.364, 22.535 54.770, 25.549 69.640 C 25.788 70.817, 26.734 72.068, 27.651 72.420 C 29.863 73.269, 95.912 51.328, 98.457 48.898 C 100.398 47.045, 100.397 46.998, 98.318 42.718 C 94.879 35.638, 86.623 27.432, 79.326 23.840 C 73.907 21.172, 71.435 20.580, 64.655 20.324 C 59.727 20.139, 54.917 20.542, 52.500 21.344" 
stroke="context-fill" fill='context-fill' fill-rule="evenodd"/></svg>
