<?xml version="1.0" encoding="UTF-8" standalone="no"?>
<svg viewBox="0 0 50 50"
 xmlns="http://www.w3.org/2000/svg" xmlns:xlink="http://www.w3.org/1999/xlink" version="1.2" baseProfile="tiny">
<title>Qt SVG Document</title>
<desc>Generated with Qt</desc>
<defs>
</defs>
<g fill="none" stroke="black" stroke-width="1" fill-rule="evenodd" stroke-linecap="square" stroke-linejoin="bevel" >

<g fill="none" stroke="#000000" stroke-opacity="1" stroke-width="1" stroke-linecap="square" stroke-linejoin="bevel" transform="matrix(1,0,0,1,0,0)"
font-family="Inter Display Medium" font-size="10" font-weight="500" font-style="normal" 
>
</g>

<g fill="#a1a9b1" fill-opacity="0.0719921" stroke="none" transform="matrix(1,0,0,1,2.5,2.5)"
font-family="Inter Display Medium" font-size="10" font-weight="500" font-style="normal" 
>
<circle cx="22.5" cy="22.5" r="22.5"/>
</g>

<g fill="none" stroke="#000000" stroke-opacity="1" stroke-width="1" stroke-linecap="square" stroke-linejoin="bevel" transform="matrix(1,0,0,1,0,0)"
font-family="Inter Display Medium" font-size="10" font-weight="500" font-style="normal" 
>
</g>

<g fill="none" stroke="#a1a9b1" stroke-opacity="1" stroke-width="1.001" stroke-linecap="square" stroke-linejoin="bevel" transform="matrix(2.5,0,0,2.5,2.5,2.5)"
font-family="Inter Display Medium" font-size="10" font-weight="500" font-style="normal" 
>
</g>

<g fill="none" stroke="#a1a9b1" stroke-opacity="0.900008" stroke-width="1.2012" stroke-linecap="round" stroke-linejoin="miter" stroke-miterlimit="2" transform="matrix(2.5,0,0,2.5,2.5,2.5)"
font-family="Inter Display Medium" font-size="10" font-weight="500" font-style="normal" 
>
<path vector-effect="none" fill-rule="evenodd" d="M4.4,4.40115 C4.4,4.40051 4.40051,4.4 4.40115,4.4 L13.5989,4.4 C13.5995,4.4 13.6,4.40051 13.6,4.40115 L13.6,13.5989 C13.6,13.5995 13.5995,13.6 13.5989,13.6 L4.40115,13.6 C4.40051,13.6 4.4,13.5995 4.4,13.5989 L4.4,4.40115"/>
</g>

<g fill="none" stroke="#a1a9b1" stroke-opacity="1" stroke-width="1.001" stroke-linecap="square" stroke-linejoin="bevel" transform="matrix(2.5,0,0,2.5,2.5,2.5)"
font-family="Inter Display Medium" font-size="10" font-weight="500" font-style="normal" 
>
</g>

<g fill="none" stroke="#000000" stroke-opacity="1" stroke-width="1" stroke-linecap="square" stroke-linejoin="bevel" transform="matrix(1,0,0,1,0,0)"
font-family="Inter Display Medium" font-size="10" font-weight="500" font-style="normal" 
>
</g>
</g>
</svg>
