<?xml version="1.0" encoding="UTF-8" standalone="no"?>
<svg viewBox="0 0 50 50"
 xmlns="http://www.w3.org/2000/svg" xmlns:xlink="http://www.w3.org/1999/xlink" version="1.2" baseProfile="tiny">
<title>Qt SVG Document</title>
<desc>Generated with Qt</desc>
<defs>
</defs>
<g fill="none" stroke="black" stroke-width="1" fill-rule="evenodd" stroke-linecap="square" stroke-linejoin="bevel" >

<g fill="none" stroke="#000000" stroke-opacity="1" stroke-width="1" stroke-linecap="square" stroke-linejoin="bevel" transform="matrix(1,0,0,1,0,0)"
font-family="Inter Display Medium" font-size="10" font-weight="500" font-style="normal" 
>
</g>

<g fill="#a1a9b1" fill-opacity="0.0719921" stroke="none" transform="matrix(1,0,0,1,2.5,2.5)"
font-family="Inter Display Medium" font-size="10" font-weight="500" font-style="normal" 
>
<circle cx="22.5" cy="22.5" r="22.5"/>
</g>

<g fill="none" stroke="#000000" stroke-opacity="1" stroke-width="1" stroke-linecap="square" stroke-linejoin="bevel" transform="matrix(1,0,0,1,0,0)"
font-family="Inter Display Medium" font-size="10" font-weight="500" font-style="normal" 
>
</g>

<g fill="none" stroke="#a1a9b1" stroke-opacity="1" stroke-width="1.001" stroke-linecap="square" stroke-linejoin="bevel" transform="matrix(2.5,0,0,2.5,2.5,2.5)"
font-family="Inter Display Medium" font-size="10" font-weight="500" font-style="normal" 
>
</g>

<g fill="none" stroke="#a1a9b1" stroke-opacity="1" stroke-width="1.001" stroke-linecap="round" stroke-linejoin="miter" stroke-miterlimit="2" transform="matrix(2.5,0,0,2.5,2.5,2.5)"
font-family="Inter Display Medium" font-size="10" font-weight="500" font-style="normal" 
>
</g>

<g fill="none" stroke="#a1a9b1" stroke-opacity="1" stroke-width="1.001" stroke-linecap="round" stroke-linejoin="miter" stroke-miterlimit="2" transform="matrix(2.5,0,0,2.5,2.5,2.5)"
font-family="Inter Display Medium" font-size="10" font-weight="500" font-style="normal" 
>
</g>

<g fill="none" stroke="#a1a9b1" stroke-opacity="1" stroke-width="1.001" stroke-linecap="round" stroke-linejoin="miter" stroke-miterlimit="2" transform="matrix(2.5,0,0,2.5,2.5,2.5)"
font-family="Inter Display Medium" font-size="10" font-weight="500" font-style="normal" 
>
</g>

<g fill="none" stroke="#a1a9b1" stroke-opacity="1" stroke-width="1.001" stroke-linecap="round" stroke-linejoin="miter" stroke-miterlimit="2" transform="matrix(2.5,0,0,2.5,13.5,19.5)"
font-family="Inter Display Medium" font-size="10" font-weight="500" font-style="normal" 
>
</g>

<g fill="none" stroke="#a1a9b1" stroke-opacity="1" stroke-width="1.001" stroke-linecap="round" stroke-linejoin="miter" stroke-miterlimit="2" transform="matrix(2.5,0,0,2.5,13.5,19.5)"
font-family="Inter Display Medium" font-size="10" font-weight="500" font-style="normal" 
>
</g>

<g fill="none" stroke="#a1a9b1" stroke-opacity="1" stroke-width="1.001" stroke-linecap="round" stroke-linejoin="miter" stroke-miterlimit="2" transform="matrix(2.5,0,0,2.5,13.5,19.5)"
font-family="Inter Display Medium" font-size="10" font-weight="500" font-style="normal" 
>
</g>

<g fill="none" stroke="#a1a9b1" stroke-opacity="0.900008" stroke-width="1.2012" stroke-linecap="butt" stroke-linejoin="bevel" transform="matrix(2.5,0,0,2.5,13.5,19.5)"
font-family="Inter Display Medium" font-size="10" font-weight="500" font-style="normal" 
>
<path vector-effect="none" fill-rule="evenodd" d="M0,0 L7.2,0 L7.2,7.2 L0,7.2 L0,0"/>
</g>

<g fill="none" stroke="#a1a9b1" stroke-opacity="1" stroke-width="1.001" stroke-linecap="round" stroke-linejoin="miter" stroke-miterlimit="2" transform="matrix(2.5,0,0,2.5,13.5,19.5)"
font-family="Inter Display Medium" font-size="10" font-weight="500" font-style="normal" 
>
</g>

<g fill="none" stroke="#a1a9b1" stroke-opacity="1" stroke-width="1.001" stroke-linecap="round" stroke-linejoin="miter" stroke-miterlimit="2" transform="matrix(2.5,0,0,2.5,13.5,19.5)"
font-family="Inter Display Medium" font-size="10" font-weight="500" font-style="normal" 
>
</g>

<g fill="none" stroke="none" transform="matrix(2.5,0,0,2.5,13.5,19.5)"
font-family="Inter Display Medium" font-size="10" font-weight="500" font-style="normal" 
>
<path vector-effect="none" fill-rule="evenodd" d="M0,0 L7.2,0 L7.2,7.2 L0,7.2 L0,0"/>
</g>

<g fill="none" stroke="#a1a9b1" stroke-opacity="1" stroke-width="1.001" stroke-linecap="round" stroke-linejoin="miter" stroke-miterlimit="2" transform="matrix(2.5,0,0,2.5,13.5,19.5)"
font-family="Inter Display Medium" font-size="10" font-weight="500" font-style="normal" 
>
</g>

<g fill="none" stroke="#a1a9b1" stroke-opacity="1" stroke-width="1.001" stroke-linecap="round" stroke-linejoin="miter" stroke-miterlimit="2" transform="matrix(2.5,0,0,2.5,13.5,19.5)"
font-family="Inter Display Medium" font-size="10" font-weight="500" font-style="normal" 
>
</g>

<g fill="none" stroke="none" transform="matrix(2.5,0,0,2.5,13.5,19.5)"
font-family="Inter Display Medium" font-size="10" font-weight="500" font-style="normal" 
>
<path vector-effect="none" fill-rule="evenodd" d="M0.4,-0.6006 L0.4,-0.4 L7.6,-0.4 L7.6,6.8 L7.8006,6.8"/>
</g>

<g fill="none" stroke="#a1a9b1" stroke-opacity="1" stroke-width="1.001" stroke-linecap="round" stroke-linejoin="miter" stroke-miterlimit="2" transform="matrix(2.5,0,0,2.5,13.5,19.5)"
font-family="Inter Display Medium" font-size="10" font-weight="500" font-style="normal" 
>
</g>

<g fill="none" stroke="#a1a9b1" stroke-opacity="1" stroke-width="1.001" stroke-linecap="round" stroke-linejoin="miter" stroke-miterlimit="2" transform="matrix(2.5,0,0,2.5,13.5,19.5)"
font-family="Inter Display Medium" font-size="10" font-weight="500" font-style="normal" 
>
</g>

<g fill="none" stroke="none" transform="matrix(2.5,0,0,2.5,13.5,19.5)"
font-family="Inter Display Medium" font-size="10" font-weight="500" font-style="normal" 
>
<path vector-effect="none" fill-rule="evenodd" d="M0.4,-0.6006 L0.4,-0.4 L7.6,-0.4 L7.6,6.8 L7.8006,6.8 L7.8006,-0.6006"/>
</g>

<g fill="none" stroke="#a1a9b1" stroke-opacity="1" stroke-width="1.001" stroke-linecap="round" stroke-linejoin="miter" stroke-miterlimit="2" transform="matrix(2.5,0,0,2.5,13.5,19.5)"
font-family="Inter Display Medium" font-size="10" font-weight="500" font-style="normal" 
>
</g>

<g fill="none" stroke="#a1a9b1" stroke-opacity="1" stroke-width="1.001" stroke-linecap="round" stroke-linejoin="miter" stroke-miterlimit="2" transform="matrix(2.5,0,0,2.5,13.5,19.5)"
font-family="Inter Display Medium" font-size="10" font-weight="500" font-style="normal" 
>
</g>

<g fill="none" stroke="none" transform="matrix(2.5,0,0,2.5,13.5,19.5)"
font-family="Inter Display Medium" font-size="10" font-weight="500" font-style="normal" 
>
<path vector-effect="none" fill-rule="evenodd" d="M0.8,-0.6006 L0.8,-0.8 L8,-0.8 L8,6.4 L7.8006,6.4"/>
</g>

<g fill="none" stroke="#a1a9b1" stroke-opacity="1" stroke-width="1.001" stroke-linecap="round" stroke-linejoin="miter" stroke-miterlimit="2" transform="matrix(2.5,0,0,2.5,13.5,19.5)"
font-family="Inter Display Medium" font-size="10" font-weight="500" font-style="normal" 
>
</g>

<g fill="none" stroke="#a1a9b1" stroke-opacity="1" stroke-width="1.001" stroke-linecap="round" stroke-linejoin="miter" stroke-miterlimit="2" transform="matrix(2.5,0,0,2.5,13.5,19.5)"
font-family="Inter Display Medium" font-size="10" font-weight="500" font-style="normal" 
>
</g>

<g fill="none" stroke="none" transform="matrix(2.5,0,0,2.5,13.5,19.5)"
font-family="Inter Display Medium" font-size="10" font-weight="500" font-style="normal" 
>
<path vector-effect="none" fill-rule="evenodd" d="M0.8,-0.6006 L0.8,-0.8 L8,-0.8 L8,6.4 L7.8006,6.4 L7.8006,-0.6006"/>
</g>

<g fill="none" stroke="#a1a9b1" stroke-opacity="1" stroke-width="1.001" stroke-linecap="round" stroke-linejoin="miter" stroke-miterlimit="2" transform="matrix(2.5,0,0,2.5,13.5,19.5)"
font-family="Inter Display Medium" font-size="10" font-weight="500" font-style="normal" 
>
</g>

<g fill="none" stroke="#a1a9b1" stroke-opacity="1" stroke-width="1.001" stroke-linecap="round" stroke-linejoin="miter" stroke-miterlimit="2" transform="matrix(2.5,0,0,2.5,13.5,19.5)"
font-family="Inter Display Medium" font-size="10" font-weight="500" font-style="normal" 
>
</g>

<g fill="none" stroke="none" transform="matrix(2.5,0,0,2.5,13.5,19.5)"
font-family="Inter Display Medium" font-size="10" font-weight="500" font-style="normal" 
>
<path vector-effect="none" fill-rule="evenodd" d="M1.2,-0.6006 L1.2,-1.2 L8.4,-1.2 L8.4,6 L7.8006,6"/>
</g>

<g fill="none" stroke="#a1a9b1" stroke-opacity="1" stroke-width="1.001" stroke-linecap="round" stroke-linejoin="miter" stroke-miterlimit="2" transform="matrix(2.5,0,0,2.5,13.5,19.5)"
font-family="Inter Display Medium" font-size="10" font-weight="500" font-style="normal" 
>
</g>

<g fill="none" stroke="#a1a9b1" stroke-opacity="1" stroke-width="1.001" stroke-linecap="round" stroke-linejoin="miter" stroke-miterlimit="2" transform="matrix(2.5,0,0,2.5,13.5,19.5)"
font-family="Inter Display Medium" font-size="10" font-weight="500" font-style="normal" 
>
</g>

<g fill="none" stroke="none" transform="matrix(2.5,0,0,2.5,13.5,19.5)"
font-family="Inter Display Medium" font-size="10" font-weight="500" font-style="normal" 
>
<path vector-effect="none" fill-rule="evenodd" d="M1.2,-0.6006 L1.2,-1.2 L8.4,-1.2 L8.4,6 L7.8006,6 L7.8006,-0.6006"/>
</g>

<g fill="none" stroke="#a1a9b1" stroke-opacity="1" stroke-width="1.001" stroke-linecap="round" stroke-linejoin="miter" stroke-miterlimit="2" transform="matrix(2.5,0,0,2.5,13.5,19.5)"
font-family="Inter Display Medium" font-size="10" font-weight="500" font-style="normal" 
>
</g>

<g fill="none" stroke="#a1a9b1" stroke-opacity="1" stroke-width="1.001" stroke-linecap="round" stroke-linejoin="miter" stroke-miterlimit="2" transform="matrix(2.5,0,0,2.5,13.5,19.5)"
font-family="Inter Display Medium" font-size="10" font-weight="500" font-style="normal" 
>
</g>

<g fill="none" stroke="none" transform="matrix(2.5,0,0,2.5,13.5,19.5)"
font-family="Inter Display Medium" font-size="10" font-weight="500" font-style="normal" 
>
<path vector-effect="none" fill-rule="evenodd" d="M1.6,-0.6006 L1.6,-1.6 L8.8,-1.6 L8.8,5.6 L7.8006,5.6"/>
</g>

<g fill="none" stroke="#a1a9b1" stroke-opacity="1" stroke-width="1.001" stroke-linecap="round" stroke-linejoin="miter" stroke-miterlimit="2" transform="matrix(2.5,0,0,2.5,13.5,19.5)"
font-family="Inter Display Medium" font-size="10" font-weight="500" font-style="normal" 
>
</g>

<g fill="none" stroke="#a1a9b1" stroke-opacity="1" stroke-width="1.001" stroke-linecap="round" stroke-linejoin="miter" stroke-miterlimit="2" transform="matrix(2.5,0,0,2.5,13.5,19.5)"
font-family="Inter Display Medium" font-size="10" font-weight="500" font-style="normal" 
>
</g>

<g fill="none" stroke="none" transform="matrix(2.5,0,0,2.5,13.5,19.5)"
font-family="Inter Display Medium" font-size="10" font-weight="500" font-style="normal" 
>
<path vector-effect="none" fill-rule="evenodd" d="M1.6,-0.6006 L1.6,-1.6 L8.8,-1.6 L8.8,5.6 L7.8006,5.6 L7.8006,-0.6006"/>
</g>

<g fill="none" stroke="#a1a9b1" stroke-opacity="1" stroke-width="1.001" stroke-linecap="round" stroke-linejoin="miter" stroke-miterlimit="2" transform="matrix(2.5,0,0,2.5,13.5,19.5)"
font-family="Inter Display Medium" font-size="10" font-weight="500" font-style="normal" 
>
</g>

<g fill="none" stroke="#a1a9b1" stroke-opacity="1" stroke-width="1.001" stroke-linecap="round" stroke-linejoin="miter" stroke-miterlimit="2" transform="matrix(2.5,0,0,2.5,13.5,19.5)"
font-family="Inter Display Medium" font-size="10" font-weight="500" font-style="normal" 
>
</g>

<g fill="none" stroke="none" transform="matrix(2.5,0,0,2.5,13.5,19.5)"
font-family="Inter Display Medium" font-size="10" font-weight="500" font-style="normal" 
>
<path vector-effect="none" fill-rule="evenodd" d="M2,-0.6006 L2,-2 L9.2,-2 L9.2,5.2 L7.8006,5.2"/>
</g>

<g fill="none" stroke="#a1a9b1" stroke-opacity="1" stroke-width="1.001" stroke-linecap="round" stroke-linejoin="miter" stroke-miterlimit="2" transform="matrix(2.5,0,0,2.5,13.5,19.5)"
font-family="Inter Display Medium" font-size="10" font-weight="500" font-style="normal" 
>
</g>

<g fill="none" stroke="#a1a9b1" stroke-opacity="1" stroke-width="1.001" stroke-linecap="round" stroke-linejoin="miter" stroke-miterlimit="2" transform="matrix(2.5,0,0,2.5,13.5,19.5)"
font-family="Inter Display Medium" font-size="10" font-weight="500" font-style="normal" 
>
</g>

<g fill="none" stroke="none" transform="matrix(2.5,0,0,2.5,13.5,19.5)"
font-family="Inter Display Medium" font-size="10" font-weight="500" font-style="normal" 
>
<path vector-effect="none" fill-rule="evenodd" d="M2,-0.6006 L2,-2 L9.2,-2 L9.2,5.2 L7.8006,5.2 L7.8006,-0.6006"/>
</g>

<g fill="none" stroke="#a1a9b1" stroke-opacity="1" stroke-width="1.001" stroke-linecap="round" stroke-linejoin="miter" stroke-miterlimit="2" transform="matrix(2.5,0,0,2.5,13.5,19.5)"
font-family="Inter Display Medium" font-size="10" font-weight="500" font-style="normal" 
>
</g>

<g fill="none" stroke="#a1a9b1" stroke-opacity="1" stroke-width="1.001" stroke-linecap="round" stroke-linejoin="miter" stroke-miterlimit="2" transform="matrix(2.5,0,0,2.5,13.5,19.5)"
font-family="Inter Display Medium" font-size="10" font-weight="500" font-style="normal" 
>
</g>

<g fill="none" stroke="#a1a9b1" stroke-opacity="0.900008" stroke-width="1.2012" stroke-linecap="butt" stroke-linejoin="bevel" transform="matrix(2.5,0,0,2.5,13.5,19.5)"
font-family="Inter Display Medium" font-size="10" font-weight="500" font-style="normal" 
>
<path vector-effect="none" fill-rule="evenodd" d="M2.4,-0.6006 L2.4,-2.4 L9.6,-2.4 L9.6,4.8 L7.8006,4.8"/>
</g>

<g fill="none" stroke="#a1a9b1" stroke-opacity="1" stroke-width="1.001" stroke-linecap="round" stroke-linejoin="miter" stroke-miterlimit="2" transform="matrix(2.5,0,0,2.5,13.5,19.5)"
font-family="Inter Display Medium" font-size="10" font-weight="500" font-style="normal" 
>
</g>

<g fill="none" stroke="#a1a9b1" stroke-opacity="1" stroke-width="1.001" stroke-linecap="round" stroke-linejoin="miter" stroke-miterlimit="2" transform="matrix(2.5,0,0,2.5,13.5,19.5)"
font-family="Inter Display Medium" font-size="10" font-weight="500" font-style="normal" 
>
</g>

<g fill="none" stroke="none" transform="matrix(2.5,0,0,2.5,13.5,19.5)"
font-family="Inter Display Medium" font-size="10" font-weight="500" font-style="normal" 
>
<path vector-effect="none" fill-rule="evenodd" d="M2.4,-0.6006 L2.4,-2.4 L9.6,-2.4 L9.6,4.8 L7.8006,4.8 L7.8006,-0.6006"/>
</g>

<g fill="none" stroke="#a1a9b1" stroke-opacity="1" stroke-width="1.001" stroke-linecap="round" stroke-linejoin="miter" stroke-miterlimit="2" transform="matrix(2.5,0,0,2.5,13.5,19.5)"
font-family="Inter Display Medium" font-size="10" font-weight="500" font-style="normal" 
>
</g>

<g fill="none" stroke="#a1a9b1" stroke-opacity="1" stroke-width="1.001" stroke-linecap="round" stroke-linejoin="miter" stroke-miterlimit="2" transform="matrix(2.5,0,0,2.5,2.5,2.5)"
font-family="Inter Display Medium" font-size="10" font-weight="500" font-style="normal" 
>
</g>

<g fill="none" stroke="#a1a9b1" stroke-opacity="1" stroke-width="1.001" stroke-linecap="square" stroke-linejoin="bevel" transform="matrix(2.5,0,0,2.5,2.5,2.5)"
font-family="Inter Display Medium" font-size="10" font-weight="500" font-style="normal" 
>
</g>

<g fill="none" stroke="#000000" stroke-opacity="1" stroke-width="1" stroke-linecap="square" stroke-linejoin="bevel" transform="matrix(1,0,0,1,0,0)"
font-family="Inter Display Medium" font-size="10" font-weight="500" font-style="normal" 
>
</g>
</g>
</svg>
