<?xml version="1.0" standalone="no"?>
<!DOCTYPE svg PUBLIC "-//W3C//DTD SVG 20010904//EN"
 "http://www.w3.org/TR/2001/REC-SVG-20010904/DTD/svg10.dtd">
<svg version="1.0" xmlns="http://www.w3.org/2000/svg"
 width="13.000000pt" height="13.000000pt" viewBox="0 0 50.000000 50.000000"
 preserveAspectRatio="xMidYMid meet">

<g transform="translate(0.000000,50.000000) scale(0.100000,-0.100000)">
<path d="M154 336 l-86 -85 86 -85 c47 -48 91 -86 98 -86 18 0 168 151 168
169 0 17 -150 171 -167 171 -7 0 -52 -38 -99 -84z m171 -16 l70 -70 -73 -73
-72 -72 -72 72 -73 73 70 70 c38 38 72 70 75 70 3 0 37 -32 75 -70z"
fill="context-fill"
style="fill:context-fill;fill-opacity:1;stroke-width:0.947833"
/>
</g>
</svg>
