<?xml version="1.0" standalone="no"?>
<!DOCTYPE svg PUBLIC "-//W3C//DTD SVG 20010904//EN"
 "http://www.w3.org/TR/2001/REC-SVG-20010904/DTD/svg10.dtd">
<svg version="1.0" xmlns="http://www.w3.org/2000/svg"
 width="128.000000pt" height="128.000000pt" viewBox="0 0 128.000000 128.000000"
 preserveAspectRatio="xMidYMid meet">
<metadata>
Created by potrace 1.10, written by Peter Selinger 2001-2011
</metadata>
<g transform="translate(0.000000,128.000000) scale(0.100000,-0.100000)"
fill="#000000" stroke="none">
<path d="M530 1179 c-131 -25 -271 -134 -334 -260 -45 -90 -60 -163 -54 -274
20 -366 335 -631 653 -550 165 42 287 148 352 305 28 69 29 114 3 140 -43 43
-108 10 -128 -64 -45 -162 -219 -270 -394 -245 -64 9 -109 27 -165 68 -45 32
-126 128 -121 142 2 5 165 64 363 130 198 67 373 131 389 142 26 18 28 24 24
71 -6 69 -73 183 -154 262 -121 117 -274 164 -434 133z m168 -40 c123 -19 247
-106 325 -229 38 -61 67 -137 60 -157 -3 -6 -175 -69 -382 -138 -208 -69 -387
-132 -397 -140 -19 -13 -18 -15 5 -59 56 -108 163 -192 280 -221 80 -19 141
-16 223 13 129 45 212 134 257 274 13 39 30 51 51 38 19 -12 -2 -100 -40 -166
-58 -103 -142 -168 -266 -209 -94 -31 -198 -29 -289 6 -83 31 -122 57 -185
126 -163 176 -206 444 -102 638 56 104 173 192 290 219 71 16 91 17 170 5z"/>
<path d="M560 1078 c-148 -27 -275 -150 -310 -300 -21 -91 -6 -238 25 -238 23
0 716 237 728 249 18 18 -35 111 -99 175 -95 97 -217 138 -344 114z m179 -53
c65 -23 129 -72 177 -138 25 -33 43 -64 42 -69 -4 -11 -659 -230 -667 -222 -3
3 -5 42 -5 87 3 166 83 286 227 337 63 23 169 26 226 5z"/>
</g>
</svg>
